<?xml version="1.0" encoding="UTF-8"?>
<svg id="Layer_2" data-name="Layer 2" xmlns="http://www.w3.org/2000/svg" viewBox="0 0 29.71 99.79">
  <defs>
    <style>
      .cls-1 {
        fill: #231f20;
        stroke: #231f20;
        stroke-miterlimit: 10;
        stroke-width: 2px;
      }
    </style>
  </defs>
  <g id="Layer_1-2" data-name="Layer 1">
    <path class="cls-1" d="m28.71,23.36c0,13.39-5.52,20.2-9.48,26.66-3.47,5.74-4.59,10.52-4.21,20.08,0,1.32-.56,2.15-1.86,2.15-.37,0-.56-.48-.56-1.44,0-10.88.93-16.86,3.9-24.51,2.85-6.93,6.38-13.15,6.38-23.43s-2.48-18.05-7.93-18.05c-3.28,0-5.39,2.87-6.45,6.58-.74,2.15-.99,5.62-.99,10.28,0,3.47-2.35,5.98-4.4,5.98-1.24,0-2.11-.96-2.11-4.78C1,14.63,6.33,1,15.19,1s13.51,9.68,13.51,22.36Zm-11.16,68.14c0,4.06-1.74,7.29-3.84,7.29-2.23,0-3.9-3.23-3.9-7.29,0-4.42,1.67-7.65,3.9-7.65,2.11,0,3.84,3.23,3.84,7.65Z"/>
  </g>
</svg>