<?xml version="1.0" encoding="UTF-8"?>
<svg id="Layer_2" data-name="Layer 2" xmlns="http://www.w3.org/2000/svg" viewBox="0 0 29.71 50.16">
  <defs>
    <style>
      .cls-1 {
        fill: #231f20;
        stroke: #231f20;
        stroke-miterlimit: 10;
        stroke-width: 2px;
      }
    </style>
  </defs>
  <g id="Layer_1-2" data-name="Layer 1">
    <path class="cls-1" d="m28.71,12.01c0,6.59-5.52,9.95-9.48,13.13-3.47,2.83-4.59,5.18-4.21,9.89,0,.65-.56,1.06-1.86,1.06-.37,0-.56-.24-.56-.71,0-5.36.93-8.3,3.9-12.07,2.85-3.41,6.38-6.48,6.38-11.54s-2.48-8.89-7.93-8.89c-3.28,0-5.39,1.41-6.45,3.24-.74,1.06-.99,2.77-.99,5.06,0,1.71-2.35,2.94-4.4,2.94-1.24,0-2.11-.47-2.11-2.36C1,7.71,6.33,1,15.19,1s13.51,4.77,13.51,11.01Zm-11.16,33.56c0,2-1.74,3.59-3.84,3.59-2.23,0-3.9-1.59-3.9-3.59,0-2.18,1.67-3.77,3.9-3.77,2.11,0,3.84,1.59,3.84,3.77Z"/>
  </g>
</svg>