<?xml version="1.0" encoding="UTF-8"?>
<svg id="Layer_2" data-name="Layer 2" xmlns="http://www.w3.org/2000/svg" viewBox="0 0 28.55 99.91">
  <defs>
    <style>
      .cls-1 {
        fill: #231f20;
        stroke: #231f20;
        stroke-miterlimit: 10;
        stroke-width: .5px;
      }
    </style>
  </defs>
  <g id="Layer_1-2" data-name="Layer 1">
    <path class="cls-1" d="m7.5,27.97c0,4.41-1.1,6.61-3.38,6.61-2.56,0-3.87-3.45-3.87-10.06,0-5.79,1.25-11.16,3.66-15.99C6.61,3.01,9.99.25,14.21.25c4.49,0,8.08,2.76,10.78,8,2.14,4.41,3.32,10.06,3.32,17.1,0,8.96-2.49,16.68-7.25,23.16l-2.14,2.9c-3.32,4.55-5.04,10.75-5.04,18.89v.97c0,1.38-.41,2.21-1.11,2.21h-.62c-.69,0-1.04-.83-1.04-2.21v-1.24c0-8.55,1.59-15.58,4.63-21.37l1.25-2.35c2.35-4.55,3.87-7.86,4.56-10.06.97-2.9,1.38-6.48,1.38-10.61,0-6.07-.9-10.89-2.69-14.75-1.73-3.59-3.94-5.52-6.63-5.52-2.97,0-5.53,2.21-7.46,6.62-1.24,2.76-1.86,5.93-2.07,9.37,2.28.42,3.45,2.62,3.45,6.62Zm7.95,58.59c.76,1.65,1.18,3.45,1.18,5.51,0,5.1-1.24,7.58-3.8,7.58s-3.87-2.48-3.87-7.58c0-1.93.42-3.86,1.18-5.38s1.66-2.34,2.69-2.34,1.86.83,2.62,2.21Z"/>
  </g>
</svg>