<?xml version="1.0" encoding="UTF-8"?>
<svg id="Layer_2" data-name="Layer 2" xmlns="http://www.w3.org/2000/svg" viewBox="0 0 28.55 50.32">
  <defs>
    <style>
      .cls-1 {
        fill: #231f20;
        stroke: #231f20;
        stroke-miterlimit: 10;
        stroke-width: .5px;
      }
    </style>
  </defs>
  <g id="Layer_1-2" data-name="Layer 1">
    <path class="cls-1" d="m7.5,14.14c0,2.21-1.1,3.31-3.38,3.31-2.56,0-3.87-1.73-3.87-5.04,0-2.9,1.25-5.59,3.66-8.01C6.61,1.63,9.99.25,14.21.25c4.49,0,8.08,1.38,10.78,4.01,2.14,2.21,3.32,5.04,3.32,8.57,0,4.49-2.49,8.36-7.25,11.61l-2.14,1.45c-3.32,2.28-5.04,5.39-5.04,9.47v.48c0,.69-.41,1.11-1.11,1.11h-.62c-.69,0-1.04-.41-1.04-1.11v-.62c0-4.28,1.59-7.81,4.63-10.71l1.25-1.18c2.35-2.28,3.87-3.94,4.56-5.04.97-1.45,1.38-3.25,1.38-5.32,0-3.04-.9-5.46-2.69-7.39-1.73-1.8-3.94-2.77-6.63-2.77-2.97,0-5.53,1.11-7.46,3.32-1.24,1.38-1.86,2.97-2.07,4.7,2.28.21,3.45,1.31,3.45,3.32Zm7.95,29.36c.76.83,1.18,1.73,1.18,2.76,0,2.56-1.24,3.8-3.8,3.8s-3.87-1.24-3.87-3.8c0-.97.42-1.94,1.18-2.69s1.66-1.17,2.69-1.17,1.86.41,2.62,1.11Z"/>
  </g>
</svg>