<?xml version="1.0" encoding="UTF-8"?>
<svg id="Layer_2" data-name="Layer 2" xmlns="http://www.w3.org/2000/svg" viewBox="0 0 39.19 51.57">
  <defs>
    <style>
      .cls-1 {
        fill: #231f20;
        stroke: #231f20;
        stroke-miterlimit: 10;
        stroke-width: 2px;
      }
    </style>
  </defs>
  <g id="Layer_1-2" data-name="Layer 1">
    <path class="cls-1" d="m1.68,11.6c.62,1.94,1.24,2.41,3.1,2.41,1.3,0,3.41-.29,5.95-.77.68-3.83.87-5.42.87-7.12,0-2-.25-2.41-1.74-3-.37-.18-.43-.29-.43-.53,0-.82,1.18-1.59,2.29-1.59,2.42,0,4.4,1.88,4.4,4.18,0,.18,0,.41-.06.83,1.74,1.35,3.78,2.35,4.96,2.35.43,0,.99-.06,1.55-.06,1.36,0,2.05.65,2.05,1.94,0,1.06-.74,1.94-2.42,2.94-1.92,1.18-4.71,2.24-8.68,3.36-.68,2.77-1.43,6.77-1.98,10.13-.31,1.83-.5,4-.5,5.36s.25,2,.87,2c.37,0,.81-.29,2.6-1.71,5.27-4.36,8.93-6.01,13.14-6.01,5.64,0,10.54,4.59,10.54,9.95,0,9.24-12.77,13.84-23.43,14.19-1.18.06-2.29.12-3.72.12-.31-.06-.31-.41-.06-.47,13.51-1.77,22.44-7.54,22.44-14.6,0-4.12-2.91-7.24-6.94-7.24-2.29,0-4.59,1.12-7.13,3.65-1.05,1.12-1.61,1.77-3.66,4.36-1.67,2.24-2.79,3-4.28,3-2.42,0-3.97-2.18-3.97-5.48,0-1.71.31-4.3.87-7.77.56-2.94,1.18-5.95,1.67-8.83-1.8.41-3.35.65-4.65.65-2.85,0-4.34-1.35-4.34-3.95,0-.71.12-1.29.43-2.3.06-.12.19-.12.25,0Zm17.97-1.35c-1.3-1.18-2.54-2.41-3.84-3.53-.19.94-.25,1.24-.62,2.65-.31,1.12-.5,1.77-.81,3.12,2.42-.65,3.9-1.29,5.27-2.24Z"/>
  </g>
</svg>