<?xml version="1.0" encoding="UTF-8"?>
<svg id="Layer_2" data-name="Layer 2" xmlns="http://www.w3.org/2000/svg" viewBox="0 0 39.19 102.66">
  <defs>
    <style>
      .cls-1 {
        fill: #231f20;
        stroke: #231f20;
        stroke-miterlimit: 10;
        stroke-width: 2px;
      }
    </style>
  </defs>
  <g id="Layer_1-2" data-name="Layer 1">
    <path class="cls-1" d="m1.68,22.52c.62,3.95,1.24,4.9,3.1,4.9,1.3,0,3.41-.6,5.95-1.55.68-7.77.87-11,.87-14.47,0-4.06-.25-4.9-1.74-6.1-.37-.36-.43-.6-.43-1.08,0-1.67,1.18-3.23,2.29-3.23,2.42,0,4.4,3.82,4.4,8.49,0,.36,0,.84-.06,1.68,1.74,2.75,3.78,4.78,4.96,4.78.43,0,.99-.12,1.55-.12,1.36,0,2.05,1.31,2.05,3.94,0,2.15-.74,3.94-2.42,5.98-1.92,2.39-4.71,4.54-8.68,6.81-.68,5.62-1.43,13.75-1.98,20.56-.31,3.71-.5,8.13-.5,10.88s.25,4.06.87,4.06c.37,0,.81-.6,2.6-3.47,5.27-8.85,8.93-12.2,13.14-12.2,5.64,0,10.54,9.33,10.54,20.2,0,18.77-12.77,28.09-23.43,28.81-1.18.12-2.29.24-3.72.24-.31-.12-.31-.84-.06-.96,13.51-3.58,22.44-15.3,22.44-29.65,0-8.37-2.91-14.7-6.94-14.7-2.29,0-4.59,2.27-7.13,7.41-1.05,2.27-1.61,3.59-3.66,8.85-1.67,4.54-2.79,6.1-4.28,6.1-2.42,0-3.97-4.42-3.97-11.12,0-3.47.31-8.73.87-15.78.56-5.98,1.18-12.08,1.67-17.93-1.8.84-3.35,1.32-4.65,1.32-2.85,0-4.34-2.75-4.34-8.01,0-1.43.12-2.63.43-4.66.06-.24.19-.24.25,0Zm17.97-2.75c-1.3-2.39-2.54-4.9-3.84-7.17-.19,1.91-.25,2.51-.62,5.38-.31,2.27-.5,3.59-.81,6.34,2.42-1.32,3.9-2.63,5.27-4.54Z"/>
  </g>
</svg>