<?xml version="1.0" encoding="UTF-8"?>
<svg id="Layer_2" data-name="Layer 2" xmlns="http://www.w3.org/2000/svg" viewBox="0 0 40.33 105.5">
  <defs>
    <style>
      .cls-1 {
        fill: #231f20;
      }
    </style>
  </defs>
  <g id="Layer_1-2" data-name="Layer 1">
    <path class="cls-1" d="m6.41,0c1.82,0,3.8.87,5.73,2.49,2.21,1.74,3.23,3.98,3.23,6.83q0,1.37-.62,4.23c-1.02,4.47-1.7,15.16-1.7,26.1,0,3.85.62,5.72,1.82,5.72.91,0,2.1-.99,5.22-4.1,2.44-2.49,3.8-3.48,4.94-3.48,2.04,0,3.74,3.6,3.74,7.83,0,3.85-.79,5.1-4.31,6.96-7.72,4.1-10.84,6.46-14.69,11.18-4.37,5.34-6.53,11.06-6.53,17.65,0,7.71,2.95,11.93,8.34,11.93,4.08,0,8.57-1.49,13.45-4.35.85-.5,1.3-.62,1.93-.62,1.47,0,2.84,1.37,3.97,4.1.79,1.86,1.08,3.23,1.08,5.47,0,2.86-.96,4.72-3.01,5.72-1.93.99-7.09,1.86-11.29,1.86-5.16,0-8.62-1.12-11.4-3.6-3.91-3.48-6.3-11.06-6.3-19.88,0-11.93,4.54-23.11,13.33-33.06h-.4c-1.08,0-2.38-1.12-3.06-2.61-1.3-2.86-1.65-6.59-1.87-22.12-.23-11.43-.34-14.54-.74-16.53-.57-2.98-1.93-4.6-4.37-5.34C3.97.37,4.48,0,6.41,0Zm18.26,20.07c.45-.29,6.67,2.13,8.33,4.25s2.51,7.38,2.42,9.42-1.26,4.87-2.19,5.11c-.73.18-1.58-.14-3.05-3.61s-5.42-11.65-5.88-13.09-.09-1.79.36-2.08Zm4.44-8.95s5.94-1.03,8.35,1.53,2.87,4.37,2.87,7.17-.45,4.66-1.9,5.73-1.92.47-2.94-1.51c-2.32-4.66-6.16-9.25-6.6-10.91s.22-2.02.22-2.02Z"/>
  </g>
</svg>