<?xml version="1.0" encoding="UTF-8"?>
<svg id="Layer_2" data-name="Layer 2" xmlns="http://www.w3.org/2000/svg" viewBox="0 0 40.33 52.03">
  <defs>
    <style>
      .cls-1 {
        fill: #231f20;
      }
    </style>
  </defs>
  <g id="Layer_1-2" data-name="Layer 1">
    <path class="cls-1" d="m6.41,0c1.82,0,3.8.43,5.73,1.23,2.21.86,3.23,1.96,3.23,3.37q0,.67-.62,2.08c-1.02,2.21-1.7,7.48-1.7,12.87,0,1.9.62,2.82,1.82,2.82.91,0,2.1-.49,5.22-2.02,2.44-1.23,3.8-1.72,4.94-1.72,2.04,0,3.74,1.78,3.74,3.86,0,1.9-.79,2.51-4.31,3.43-7.72,2.02-10.84,3.19-14.69,5.52-4.37,2.64-6.53,5.45-6.53,8.7,0,3.8,2.95,5.88,8.34,5.88,4.08,0,8.57-.74,13.45-2.14.85-.25,1.3-.31,1.93-.31,1.47,0,2.84.67,3.97,2.02.79.92,1.08,1.59,1.08,2.7,0,1.41-.96,2.33-3.01,2.82-1.93.49-7.09.92-11.29.92-5.16,0-8.62-.55-11.4-1.78-3.91-1.72-6.3-5.45-6.3-9.8,0-5.88,4.54-11.4,13.33-16.3h-.4c-1.08,0-2.38-.55-3.06-1.29-1.3-1.41-1.65-3.25-1.87-10.91-.23-5.64-.34-7.17-.74-8.15-.57-1.47-1.93-2.27-4.37-2.63,1.08-.98,1.59-1.16,3.52-1.16Zm18.26,9.9c.45-.14,6.67,1.05,8.33,2.1s2.51,3.64,2.42,4.64-1.26,2.4-2.19,2.52c-.73.09-1.58-.07-3.05-1.78s-5.42-5.75-5.88-6.45-.09-.88.36-1.02Zm4.44-4.41s5.94-.51,8.35.76,2.87,2.16,2.87,3.53-.45,2.3-1.9,2.83-1.92.23-2.94-.75c-2.32-2.3-6.16-4.56-6.6-5.38s.22-.99.22-.99Z"/>
  </g>
</svg>