<?xml version="1.0" encoding="UTF-8"?>
<svg id="Layer_2" data-name="Layer 2" xmlns="http://www.w3.org/2000/svg" viewBox="0 0 40.5 105.41">
  <defs>
    <style>
      .cls-1 {
        stroke-width: 2px;
      }

      .cls-1, .cls-2 {
        fill: #231f20;
        stroke: #231f20;
        stroke-miterlimit: 10;
      }

      .cls-2 {
        stroke-width: .25px;
      }
    </style>
  </defs>
  <g id="Layer_1-2" data-name="Layer 1">
    <path class="cls-2" d="m6.17.12c1.71,0,3.58.87,5.4,2.48,2.09,1.73,3.05,3.96,3.05,6.81q0,1.36-.59,4.21c-.96,4.46-1.61,15.11-1.61,26.01,0,3.84.59,5.7,1.71,5.7.86,0,1.98-.99,4.92-4.09,2.3-2.48,3.58-3.47,4.66-3.47,1.93,0,3.53,3.59,3.53,7.8,0,3.84-.75,5.08-4.07,6.94-7.28,4.09-10.22,6.44-13.86,11.15-4.12,5.33-6.15,11.02-6.15,17.59,0,7.68,2.78,11.89,7.87,11.89,3.85,0,8.08-1.49,12.68-4.34.8-.5,1.23-.62,1.82-.62,1.39,0,2.68,1.36,3.75,4.09.75,1.86,1.02,3.22,1.02,5.45,0,2.85-.91,4.71-2.84,5.7-1.82.99-6.69,1.86-10.65,1.86-4.87,0-8.13-1.11-10.76-3.59-3.69-3.47-5.94-11.02-5.94-19.82,0-11.89,4.28-23.04,12.58-32.95h-.37c-1.02,0-2.25-1.11-2.89-2.6-1.23-2.85-1.55-6.57-1.77-22.05-.21-11.4-.32-14.49-.7-16.47-.53-2.97-1.82-4.58-4.12-5.33C3.87.5,4.35.12,6.17.12Z"/>
    <path class="cls-1" d="m25.05,22.63c1.86,0,3.47.72,4.83,1.67,2.73,1.91,3.97,4.9,3.97,8.25,0,2.39-.81,4.18-1.92,4.18-.68,0-1.18-.72-1.8-2.87-1.36-4.42-2.85-7.77-5.15-10.88-.12-.12-.06-.36.06-.36Zm6.01-7.77c5.02,0,8.43,3.7,8.43,8.61,0,2.15-.68,3.71-1.67,3.71-.68,0-1.12-.6-1.8-2.27-1.74-4.54-2.85-6.46-5.7-9.68-.12-.12-.06-.36.06-.36h.68Z"/>
  </g>
</svg>