<?xml version="1.0" encoding="UTF-8"?>
<svg id="Layer_2" data-name="Layer 2" xmlns="http://www.w3.org/2000/svg" viewBox="0 0 40.5 52.04">
  <defs>
    <style>
      .cls-1 {
        stroke-width: 2px;
      }

      .cls-1, .cls-2 {
        fill: #231f20;
        stroke: #231f20;
        stroke-miterlimit: 10;
      }

      .cls-2 {
        stroke-width: .25px;
      }
    </style>
  </defs>
  <g id="Layer_1-2" data-name="Layer 1">
    <path class="cls-2" d="m6.17.12c1.71,0,3.58.43,5.4,1.22,2.09.85,3.05,1.95,3.05,3.36q0,.67-.59,2.07c-.96,2.2-1.61,7.44-1.61,12.81,0,1.89.59,2.81,1.71,2.81.86,0,1.98-.49,4.92-2.01,2.3-1.22,3.58-1.71,4.66-1.71,1.93,0,3.53,1.77,3.53,3.84,0,1.89-.75,2.5-4.07,3.42-7.28,2.01-10.22,3.17-13.86,5.49-4.12,2.62-6.15,5.43-6.15,8.66,0,3.78,2.78,5.86,7.87,5.86,3.85,0,8.08-.73,12.68-2.14.8-.24,1.23-.31,1.82-.31,1.39,0,2.68.67,3.75,2.01.75.92,1.02,1.59,1.02,2.68,0,1.4-.91,2.32-2.84,2.81-1.82.49-6.69.92-10.65.92-4.87,0-8.13-.55-10.76-1.77-3.69-1.71-5.94-5.43-5.94-9.76,0-5.86,4.28-11.35,12.58-16.23h-.37c-1.02,0-2.25-.55-2.89-1.28-1.23-1.4-1.55-3.23-1.77-10.86-.21-5.61-.32-7.14-.7-8.11-.53-1.46-1.82-2.26-4.12-2.62C3.87.31,4.35.12,6.17.12Z"/>
    <path class="cls-1" d="m25.05,11.21c1.86,0,3.47.35,4.83.82,2.73.94,3.97,2.41,3.97,4.06,0,1.18-.81,2.06-1.92,2.06-.68,0-1.18-.35-1.8-1.41-1.36-2.18-2.85-3.83-5.15-5.36-.12-.06-.06-.18.06-.18Zm6.01-3.83c5.02,0,8.43,1.82,8.43,4.24,0,1.06-.68,1.83-1.67,1.83-.68,0-1.12-.29-1.8-1.12-1.74-2.24-2.85-3.18-5.7-4.77-.12-.06-.06-.18.06-.18h.68Z"/>
  </g>
</svg>