<?xml version="1.0" encoding="UTF-8"?>
<svg id="Layer_2" data-name="Layer 2" xmlns="http://www.w3.org/2000/svg" viewBox="0 0 53.44 98.71">
  <defs>
    <style>
      .cls-1 {
        fill: #231f20;
        stroke: #231f20;
        stroke-miterlimit: 10;
        stroke-width: 2px;
      }
    </style>
  </defs>
  <g id="Layer_1-2" data-name="Layer 1">
    <path class="cls-1" d="m2.3,34.83c1.24,3.47,2.48,4.78,4.59,4.78,1.24,0,2.73-.48,4.96-1.55.99-8.73,1.49-15.18,1.49-20.32,0-2.27,0-3.23-.31-4.06-.31-.6-.93-.6-1.92-.6-.37,0-.5-.24-.5-.72.06-.96.25-2.15.68-3.11.74-1.91,1.67-2.87,2.79-2.87,1.98,0,3.04,2.87,3.04,8.37,0,4.78-.62,12.67-1.67,22,3.16-1.67,4.65-2.15,6.01-2.15,4.59,0,6.69,6.69,6.69,20.8,0,12.43-1.8,24.63-4.77,32.04-2.29,6.1-5.83,10.28-8.43,10.28-2.23,0-3.04-1.55-4.59-13.15-.43-3.94-.87-6.7-1.43-11-2.48,10.04-4.34,14.7-5.95,14.7-1.18,0-1.98-2.51-1.98-5.86,0-2.27.19-2.99,1.86-5.98,2.85-5.02,6.26-18.17,8.18-31.08-2.85,1.91-3.53,2.27-4.59,2.27-2.29,0-4.59-5.26-4.59-10.64,0-.84.06-1.2.25-2.15.06-.24.12-.24.19,0Zm7.13,36.82c.74,3.7,1.74,7.53,2.79,10.88,1.24,3.83,2.05,5.14,3.04,5.14,4.65,0,8.99-16.98,8.99-35.15,0-9.32-.74-13.27-2.79-13.27-1.3,0-2.91.96-6.63,3.71-1.8,12.79-3.04,19.37-5.39,28.69Zm24.54-36.7c2.23-3.59,3.53-4.66,5.83-4.66,4.9,0,9.86,9.92,9.86,19.61,0,5.86-1.67,10.4-3.84,10.4-.74,0-.99-.36-1.8-2.39-.68-1.43-1.12-1.91-2.67-2.63-1.36-.48-2.48-.84-3.84-1.56-.12,0-.12-.48.06-.48,6.2-.72,7.62-1.55,7.62-4.9,0-6.81-3.97-14.7-7.44-14.7-.99,0-1.86.36-3.66,1.68-.19.12-.25-.12-.12-.36Zm4.22-26.18c.68,0,1.43,0,2.05.12,4.03.72,6.88,4.07,6.88,8.37,0,2.39-.74,4.3-1.8,4.3-.74,0-1.18-.6-1.8-2.51-1.49-4.9-3.04-7.77-5.39-9.8-.12-.12-.12-.36.06-.48Zm5.33-7.53c.87-.24,1.43-.24,1.98-.24,3.9,0,6.94,3.47,6.94,8.13,0,2.03-.74,3.71-1.55,3.71-.62,0-1.12-.72-1.86-2.63-1.86-4.3-3.35-6.46-5.52-8.49-.12-.12-.12-.36,0-.48Z"/>
  </g>
</svg>