<?xml version="1.0" encoding="UTF-8"?>
<svg id="Layer_2" data-name="Layer 2" xmlns="http://www.w3.org/2000/svg" viewBox="0 0 53.44 49.63">
  <defs>
    <style>
      .cls-1 {
        fill: #231f20;
        stroke: #231f20;
        stroke-miterlimit: 10;
        stroke-width: 2px;
      }
    </style>
  </defs>
  <g id="Layer_1-2" data-name="Layer 1">
    <path class="cls-1" d="m2.3,17.66c1.24,1.71,2.48,2.36,4.59,2.36,1.24,0,2.73-.24,4.96-.77.99-4.3,1.49-7.48,1.49-10.01,0-1.12,0-1.59-.31-2-.31-.29-.93-.29-1.92-.29-.37,0-.5-.12-.5-.35.06-.47.25-1.06.68-1.53.74-.94,1.67-1.41,2.79-1.41,1.98,0,3.04,1.41,3.04,4.12,0,2.36-.62,6.24-1.67,10.83,3.16-.82,4.65-1.06,6.01-1.06,4.59,0,6.69,3.3,6.69,10.24,0,6.12-1.8,12.13-4.77,15.78-2.29,3-5.83,5.06-8.43,5.06-2.23,0-3.04-.77-4.59-6.48-.43-1.94-.87-3.3-1.43-5.42-2.48,4.94-4.34,7.24-5.95,7.24-1.18,0-1.98-1.24-1.98-2.89,0-1.12.19-1.47,1.86-2.94,2.85-2.47,6.26-8.95,8.18-15.31-2.85.94-3.53,1.12-4.59,1.12-2.29,0-4.59-2.59-4.59-5.24,0-.41.06-.59.25-1.06.06-.12.12-.12.19,0Zm7.13,18.13c.74,1.82,1.74,3.71,2.79,5.36,1.24,1.88,2.05,2.53,3.04,2.53,4.65,0,8.99-8.36,8.99-17.31,0-4.59-.74-6.53-2.79-6.53-1.3,0-2.91.47-6.63,1.83-1.8,6.3-3.04,9.54-5.39,14.13Zm24.54-18.08c2.23-1.77,3.53-2.3,5.83-2.3,4.9,0,9.86,4.89,9.86,9.66,0,2.88-1.67,5.12-3.84,5.12-.74,0-.99-.18-1.8-1.18-.68-.71-1.12-.94-2.67-1.29-1.36-.24-2.48-.41-3.84-.77-.12,0-.12-.24.06-.24,6.2-.35,7.62-.77,7.62-2.41,0-3.36-3.97-7.24-7.44-7.24-.99,0-1.86.18-3.66.83-.19.06-.25-.06-.12-.18Zm4.22-12.89c.68,0,1.43,0,2.05.06,4.03.35,6.88,2,6.88,4.12,0,1.18-.74,2.12-1.8,2.12-.74,0-1.18-.29-1.8-1.24-1.49-2.41-3.04-3.83-5.39-4.83-.12-.06-.12-.18.06-.24Zm5.33-3.71c.87-.12,1.43-.12,1.98-.12,3.9,0,6.94,1.71,6.94,4,0,1-.74,1.83-1.55,1.83-.62,0-1.12-.35-1.86-1.3-1.86-2.12-3.35-3.18-5.52-4.18-.12-.06-.12-.18,0-.24Z"/>
  </g>
</svg>