<?xml version="1.0" encoding="UTF-8"?>
<svg id="Layer_2" data-name="Layer 2" xmlns="http://www.w3.org/2000/svg" viewBox="0 0 33.73 104.33">
  <defs>
    <style>
      .cls-1 {
        fill: #231f20;
        stroke: #231f20;
        stroke-miterlimit: 10;
        stroke-width: 2px;
      }
    </style>
  </defs>
  <g id="Layer_1-2" data-name="Layer 1">
    <path class="cls-1" d="m20.96,30.65c3.53,3.47,6.2,5.38,7.68,5.38.5,0,.68-.12,1.24-.36.31-.12.56-.12.81-.12,1.12-.12,2.05,1.31,2.05,3.35,0,3.94-2.91,8.13-8.24,12.07.68,2.63,1.05,3.95,1.86,6.46,2.85,8.49,3.16,9.92,3.16,13.87,0,5.38-2.17,10.28-4.65,10.28-.68,0-.99-.48-1.55-2.75-.5-1.67-.81-2.27-2.29-3.59-1.43-1.32-2.79-2.39-4.65-3.59-.19-.12-.12-.48.06-.48,2.48.48,4.83,1.32,6.51,1.32,1.43,0,2.17-1.08,2.17-3.47,0-1.91-.25-2.99-1.43-7.77-.68-2.51-1.61-6.34-2.11-8.49-4.15,2.39-8.55,3.71-11.71,3.71-4.96,0-8.37-4.66-8.86-11.96,0-.36.12-.36.25-.12,1.67,4.18,3.35,5.74,6.76,5.74s7.62-1.44,12.27-4.3c-.81-4.3-1.49-9.2-2.17-15.54-2.6,1.55-4.15,2.15-6.01,2.15-3.9,0-6.94-3.94-7.56-9.8,0-.24.06-.36.19-.24,1.67,2.87,3.35,4.18,5.08,4.18,1.98,0,4.9-1.56,7.56-3.83-.12-2.39-.19-3.11-.74-9.44-.5-5.74-1.36-8.01-3.35-8.01-.68,0-1.12.36-1.86,1.32-.12.24-.25.12-.19-.24.68-3.35,2.35-5.38,4.4-5.38,2.91,0,4.4,3.71,4.52,11.84,0,2.03,0,3.59.12,7.29,1.24-1.67,1.86-2.15,3.16-2.15,1.55,0,2.35.96,2.35,3.23,0,3.11-1.92,4.9-5.02,7.29l.19,2.15Zm-10.6,41.72c-3.28,3.47-4.46,6.58-4.46,11.6,0,6.58,2.73,10.88,6.88,10.88,1.55,0,2.54-.36,3.97-1.32.81-.6,1.05-.72,1.61-.72,1.61,0,3.1,2.27,3.1,4.54,0,3.47-3.47,5.98-7.75,5.98-6.51,0-11.03-6.57-11.03-16.14,0-7.77,2.6-12.91,7.62-15.3.19,0,.25.24.06.48Zm16.67-32.16c-1.92-2.99-3.84-5.62-5.95-8.25.43,4.3,1.05,8.37,1.86,12.19,1.86-1.32,3.04-2.27,4.09-3.94Z"/>
  </g>
</svg>