<?xml version="1.0" encoding="UTF-8"?>
<svg id="Layer_2" data-name="Layer 2" xmlns="http://www.w3.org/2000/svg" viewBox="0 0 33.73 52.4">
  <defs>
    <style>
      .cls-1 {
        fill: #231f20;
        stroke: #231f20;
        stroke-miterlimit: 10;
        stroke-width: 2px;
      }
    </style>
  </defs>
  <g id="Layer_1-2" data-name="Layer 1">
    <path class="cls-1" d="m20.96,15.6c3.53,1.71,6.2,2.65,7.68,2.65.5,0,.68-.06,1.24-.18.31-.06.56-.06.81-.06,1.12-.06,2.05.65,2.05,1.65,0,1.94-2.91,4-8.24,5.95.68,1.3,1.05,1.94,1.86,3.18,2.85,4.18,3.16,4.89,3.16,6.83,0,2.65-2.17,5.06-4.65,5.06-.68,0-.99-.24-1.55-1.35-.5-.82-.81-1.12-2.29-1.77-1.43-.65-2.79-1.18-4.65-1.77-.19-.06-.12-.24.06-.24,2.48.24,4.83.65,6.51.65,1.43,0,2.17-.53,2.17-1.71,0-.94-.25-1.47-1.43-3.83-.68-1.24-1.61-3.12-2.11-4.18-4.15,1.18-8.55,1.83-11.71,1.83-4.96,0-8.37-2.3-8.86-5.89,0-.18.12-.18.25-.06,1.67,2.06,3.35,2.83,6.76,2.83s7.62-.71,12.27-2.12c-.81-2.12-1.49-4.53-2.17-7.65-2.6.77-4.15,1.06-6.01,1.06-3.9,0-6.94-1.94-7.56-4.83,0-.12.06-.18.19-.12,1.67,1.41,3.35,2.06,5.08,2.06,1.98,0,4.9-.77,7.56-1.88-.12-1.18-.19-1.53-.74-4.65-.5-2.83-1.36-3.94-3.35-3.94-.68,0-1.12.18-1.86.65-.12.12-.25.06-.19-.12.68-1.65,2.35-2.65,4.4-2.65,2.91,0,4.4,1.83,4.52,5.83,0,1,0,1.77.12,3.59,1.24-.82,1.86-1.06,3.16-1.06,1.55,0,2.35.47,2.35,1.59,0,1.53-1.92,2.41-5.02,3.59l.19,1.06Zm-10.6,20.55c-3.28,1.71-4.46,3.24-4.46,5.71,0,3.24,2.73,5.36,6.88,5.36,1.55,0,2.54-.18,3.97-.65.81-.29,1.05-.35,1.61-.35,1.61,0,3.1,1.12,3.1,2.24,0,1.71-3.47,2.94-7.75,2.94-6.51,0-11.03-3.24-11.03-7.95,0-3.83,2.6-6.36,7.62-7.54.19,0,.25.12.06.24Zm16.67-15.84c-1.92-1.47-3.84-2.77-5.95-4.06.43,2.12,1.05,4.12,1.86,6.01,1.86-.65,3.04-1.12,4.09-1.94Z"/>
  </g>
</svg>