<?xml version="1.0" encoding="UTF-8"?>
<svg id="Layer_2" data-name="Layer 2" xmlns="http://www.w3.org/2000/svg" viewBox="0 0 51.52 95.84">
  <defs>
    <style>
      .cls-1 {
        fill: #231f20;
        stroke: #231f20;
        stroke-miterlimit: 10;
        stroke-width: 2px;
      }
    </style>
  </defs>
  <g id="Layer_1-2" data-name="Layer 1">
    <path class="cls-1" d="m5.03,22.76c1.86,4.66,4.46,6.81,8.24,6.81,1.36,0,2.29-.12,3.9-.72.19-8.49.25-11.84.25-14.94,0-5.26-.19-6.1-1.36-7.53-.62-.72-.81-1.2-.81-2.15,0-1.91.93-3.23,2.05-3.23,2.35,0,4.71,4.06,4.71,7.53,0,1.08-.12,2.27-.25,3.59,1.74,2.51,3.16,4.18,4.46,4.9.81.48,1.49.72,2.29.84,1.05,0,1.86,1.79,1.86,3.71,0,5.5-4.4,11.24-10.1,13.75-.19,3.47-.25,5.74-.25,11.12,0,4.42.06,8.37.19,11.6,5.95-5.86,10.85-8.49,15.93-8.49,8.74,0,14.38,8.37,14.38,21.52,0,11.36-4.59,19.13-11.28,19.13-7.07,0-11.84-8.25-11.84-20.2,0-3.47.31-5.86,1.24-9.68.12-.36.5-.24.43.24-.31,2.39-.37,3.47-.37,5.38,0,9.68,4.09,16.74,9.55,16.74,4.59,0,7.75-5.14,7.75-12.79,0-9.68-4.21-15.78-10.78-15.78-4.9,0-10.29,3.11-14.88,8.61.19,7.17.31,10.64.81,17.69.12,2.51.31,4.3.31,5.98,0,4.42-1.74,8.49-3.72,8.49-1.12,0-1.43-.48-1.98-3.83-.19-1.44-1.05-2.75-3.16-5.02-1.36-1.56-2.54-2.75-3.84-3.95-1.43,3.11-2.79,4.54-4.34,4.54-1.98,0-3.41-2.27-3.41-5.62,0-2.27.68-3.47,2.17-3.71,1.05-.24,1.67-.48,2.42-1.08.87-.72,1.98-2.39,4.34-5.86,2.05-2.87,3.47-4.78,7.13-9.44,0-5.5-.06-10.04-.06-13.39,0-4.42,0-7.29.06-11.24-1.3.12-1.98.24-2.73.24-5.15,0-8.55-4.78-9.55-13.51,0-.36.12-.48.25-.24Zm4.34,57.74c3.97,2.39,5.76,3.11,7.38,3.11.5,0,.56-.48.56-3.23,0-4.54-.06-8.61-.19-13.87-2.6,4.06-4.65,7.77-7.75,13.99Zm11.16-52.84c3.22-1.67,4.65-3.47,5.39-6.22-1.3-2.75-2.85-5.26-4.34-7.89-.43,4.54-.62,6.93-1.05,14.11Zm11.84,11.24c2.67-8.85,5.27-12.55,9.05-12.55s7.31,5.5,7.31,11.12c0,2.27-.87,4.3-2.05,4.3-.68,0-1.05-.6-2.11-3.23-1.86-4.66-3.35-6.46-5.33-6.46-2.29,0-3.97,1.79-6.57,7.41-.19.36-.5,0-.31-.6Z"/>
  </g>
</svg>