<?xml version="1.0" encoding="UTF-8"?>
<svg id="Layer_2" data-name="Layer 2" xmlns="http://www.w3.org/2000/svg" viewBox="0 0 51.52 48.22">
  <defs>
    <style>
      .cls-1 {
        fill: #231f20;
        stroke: #231f20;
        stroke-miterlimit: 10;
        stroke-width: 2px;
      }
    </style>
  </defs>
  <g id="Layer_1-2" data-name="Layer 1">
    <path class="cls-1" d="m5.03,11.72c1.86,2.3,4.46,3.36,8.24,3.36,1.36,0,2.29-.06,3.9-.35.19-4.18.25-5.83.25-7.36,0-2.59-.19-3-1.36-3.71-.62-.35-.81-.59-.81-1.06,0-.94.93-1.59,2.05-1.59,2.35,0,4.71,2,4.71,3.71,0,.53-.12,1.12-.25,1.77,1.74,1.24,3.16,2.06,4.46,2.41.81.24,1.49.35,2.29.41,1.05,0,1.86.88,1.86,1.83,0,2.71-4.4,5.53-10.1,6.77-.19,1.71-.25,2.83-.25,5.48,0,2.18.06,4.12.19,5.71,5.95-2.88,10.85-4.18,15.93-4.18,8.74,0,14.38,4.12,14.38,10.6,0,5.59-4.59,9.42-11.28,9.42-7.07,0-11.84-4.06-11.84-9.95,0-1.71.31-2.88,1.24-4.77.12-.18.5-.12.43.12-.31,1.18-.37,1.71-.37,2.65,0,4.77,4.09,8.24,9.55,8.24,4.59,0,7.75-2.53,7.75-6.3,0-4.77-4.21-7.77-10.78-7.77-4.9,0-10.29,1.53-14.88,4.24.19,3.53.31,5.24.81,8.71.12,1.24.31,2.12.31,2.94,0,2.18-1.74,4.18-3.72,4.18-1.12,0-1.43-.24-1.98-1.88-.19-.71-1.05-1.35-3.16-2.47-1.36-.77-2.54-1.35-3.84-1.94-1.43,1.53-2.79,2.24-4.34,2.24-1.98,0-3.41-1.12-3.41-2.77,0-1.12.68-1.71,2.17-1.83,1.05-.12,1.67-.24,2.42-.53.87-.35,1.98-1.18,4.34-2.88,2.05-1.41,3.47-2.36,7.13-4.65,0-2.71-.06-4.95-.06-6.59,0-2.18,0-3.59.06-5.53-1.3.06-1.98.12-2.73.12-5.15,0-8.55-2.36-9.55-6.65,0-.18.12-.24.25-.12Zm4.34,28.44c3.97,1.18,5.76,1.53,7.38,1.53.5,0,.56-.24.56-1.59,0-2.24-.06-4.24-.19-6.83-2.6,2-4.65,3.83-7.75,6.89Zm11.16-26.02c3.22-.82,4.65-1.71,5.39-3.06-1.3-1.35-2.85-2.59-4.34-3.89-.43,2.24-.62,3.41-1.05,6.95Zm11.84,5.53c2.67-4.36,5.27-6.18,9.05-6.18s7.31,2.71,7.31,5.48c0,1.12-.87,2.12-2.05,2.12-.68,0-1.05-.29-2.11-1.59-1.86-2.3-3.35-3.18-5.33-3.18-2.29,0-3.97.88-6.57,3.65-.19.18-.5,0-.31-.29Z"/>
  </g>
</svg>