<?xml version="1.0" encoding="UTF-8"?>
<svg id="Layer_2" data-name="Layer 2" xmlns="http://www.w3.org/2000/svg" viewBox="0 0 35.16 103.33">
  <defs>
    <style>
      .cls-1 {
        fill: #231f20;
        stroke: #231f20;
        stroke-miterlimit: 10;
        stroke-width: 2px;
      }
    </style>
  </defs>
  <g id="Layer_1-2" data-name="Layer 1">
    <path class="cls-1" d="m6.21,22.95c-.62,2.39-.87,4.54-.87,6.81,0,.84,0,1.32.12,3.23.19,1.44.25,2.75.25,3.59,0,1.43-.12,3.11-.31,6.81-.31,5.38-.56,9.21-.87,14.59-.19,3.23-.25,5.38-.25,7.29,0,3.11.19,4.18.93,4.18.56,0,.62-.12,5.39-6.46,5.83-7.53,10.47-12.19,14.32-12.19,4.96,0,9.24,9.44,9.24,20.56s-3.91,20.32-11.03,25.82c-4.09,3.23-9.42,5.14-14.38,5.14-.81,0-1.86,0-3.28-.24-.37-.12-.37-1.2,0-1.32,5.64-.72,9.73-2.75,13.82-6.58,6.69-6.22,10.66-15.66,10.66-25.82,0-8.13-2.42-14.47-5.58-14.47-2.23,0-6.14,4.54-10.41,11.72-1.3,2.39-3.53,6.57-5.33,10.4-.43.96-.5,1.08-1.05,2.63-.43,1.32-1.18,1.68-2.11,1.68-1.3,0-2.54-1.2-3.35-2.63-.56-.96-.81-2.15-.81-3.35,0-.36.06-.96.06-1.32-.31-3.94-.37-7.41-.37-12.31,0-9.68.56-18.05,1.61-25.58.81-5.98,1.55-8.61,3.28-12.67.19-.36.43,0,.31.48ZM8.07,1.07c1.05,1.32,1.3,1.56,4.4,1.79,2.73.24,3.9.84,5.02,2.27,1.36,1.67,2.23,4.18,2.23,7.29,0,2.75-.99,5.02-2.35,5.02-.5,0-1.05-.36-1.8-.84-.31-.24-1.12-.36-1.92-.36-.87,0-1.8.48-3.9,1.56-.25,0-.37-.48-.19-.72,1.92-1.67,3.16-2.75,4.09-3.59.87-.72,1.12-1.08,1.12-1.79s-.19-1.08-.99-1.55c-.56-.36-1.24-.72-1.98-1.2-1.36-.96-2.35-2.03-2.97-3.59-.62-1.32-.87-2.15-.99-4.06,0-.36.12-.36.25-.24Z"/>
  </g>
</svg>