<?xml version="1.0" encoding="UTF-8"?>
<svg id="Layer_2" data-name="Layer 2" xmlns="http://www.w3.org/2000/svg" viewBox="0 0 35.16 51.9">
  <defs>
    <style>
      .cls-1 {
        fill: #231f20;
        stroke: #231f20;
        stroke-miterlimit: 10;
        stroke-width: 2px;
      }
    </style>
  </defs>
  <g id="Layer_1-2" data-name="Layer 1">
    <path class="cls-1" d="m6.21,11.81c-.62,1.18-.87,2.24-.87,3.36,0,.41,0,.65.12,1.59.19.71.25,1.35.25,1.77,0,.71-.12,1.53-.31,3.36-.31,2.65-.56,4.53-.87,7.18-.19,1.59-.25,2.65-.25,3.59,0,1.53.19,2.06.93,2.06.56,0,.62-.06,5.39-3.18,5.83-3.71,10.47-6.01,14.32-6.01,4.96,0,9.24,4.65,9.24,10.13s-3.91,10.01-11.03,12.72c-4.09,1.59-9.42,2.53-14.38,2.53-.81,0-1.86,0-3.28-.12-.37-.06-.37-.59,0-.65,5.64-.35,9.73-1.35,13.82-3.24,6.69-3.06,10.66-7.71,10.66-12.72,0-4-2.42-7.12-5.58-7.12-2.23,0-6.14,2.24-10.41,5.77-1.3,1.18-3.53,3.24-5.33,5.12-.43.47-.5.53-1.05,1.29-.43.65-1.18.83-2.11.83-1.3,0-2.54-.59-3.35-1.3-.56-.47-.81-1.06-.81-1.65,0-.18.06-.47.06-.65-.31-1.94-.37-3.65-.37-6.06,0-4.77.56-8.89,1.61-12.6.81-2.94,1.55-4.24,3.28-6.24.19-.18.43,0,.31.24Zm1.86-10.77c1.05.65,1.3.77,4.4.88,2.73.12,3.9.41,5.02,1.12,1.36.82,2.23,2.06,2.23,3.59,0,1.35-.99,2.47-2.35,2.47-.5,0-1.05-.18-1.8-.41-.31-.12-1.12-.18-1.92-.18-.87,0-1.8.24-3.9.77-.25,0-.37-.24-.19-.35,1.92-.82,3.16-1.35,4.09-1.77.87-.35,1.12-.53,1.12-.88s-.19-.53-.99-.77c-.56-.18-1.24-.35-1.98-.59-1.36-.47-2.35-1-2.97-1.77-.62-.65-.87-1.06-.99-2,0-.18.12-.18.25-.12Z"/>
  </g>
</svg>