<?xml version="1.0" encoding="UTF-8"?>
<svg id="Layer_2" data-name="Layer 2" xmlns="http://www.w3.org/2000/svg" viewBox="0 0 60.27 55.28">
  <defs>
    <style>
      .cls-1 {
        fill: #231f20;
        stroke: #231f20;
        stroke-miterlimit: 10;
        stroke-width: 2px;
      }
    </style>
  </defs>
  <g id="Layer_1-2" data-name="Layer 1">
    <path class="cls-1" d="m19.47,14.71c1.8-2,2.11-2.24,2.48-2.24.43,0,.81.24,2.79,2,.87.82,1.12,1.18,1.12,1.53,0,.47-.43.77-1.74,1.41-.99,7.95-2.73,14.43-5.52,19.84,3.59,2.41,5.58,4.95,5.58,7.24,0,1.24-.74,2.12-1.92,2.12-1.12,0-1.8-.59-3.22-2.94-.68-1.06-1.43-2.12-2.35-3.18-3.41,5.36-8.06,9.6-14.26,13.19-.37.24-.99-.41-.68-.71,5.64-4.71,9.61-9.42,12.46-15.13-1.86-1.77-3.84-3.3-6.01-4.65-.37.88-.74,1.83-1.18,2.77-.37,1-.99,1.24-2.11,1.24-1.55,0-2.29-.29-2.29-1.06,0-.41.12-.88.68-2.06,2.23-4.95,4.15-11.3,5.7-17.9h-2.29c-1.74,0-2.98.12-4.71.41l-.62-2.3c1.98.35,3.35.41,5.21.41h2.73c.37-1.83.74-3.59,1.05-5.42.62-3.42.93-5.59,1.12-8.12,5.14.88,6.2,1.29,6.2,1.82,0,.59-.43.94-2.05,1.41-.68,3.83-1.36,7.24-2.05,10.3h5.89Zm-6.2,1.47c-1.3,5.42-2.66,10.83-4.71,16.07,2.79,1.06,4.83,2,6.82,3.06,2.23-5.3,3.59-11.48,4.4-19.13h-6.51Zm28.94,17.31c0,11.19.12,12.78.12,15.31,0,2.06-.56,3-1.36,3.77-.93.94-2.66,1.71-4.21,1.71-1.05,0-1.12-.29-1.3-1.24-.31-1.71-1.61-2.59-7-3.65-.37-.06-.37-.88,0-.88,3.97.29,6.2.41,8.12.41.74,0,1.12-.24,1.12-.94v-19.55h-8.93c-1.43,0-2.48.12-4.09.35l-.68-2.24c1.86.29,3.1.41,4.71.41h8.99v-3c0-5.06,0-6.24-.31-8.42,1.8.24,3.16.41,4.09.59,2.97-2.88,4.71-5.12,7.19-8.95h-17.11c-1.8,0-3.04.06-4.77.41l-.68-2.3c2.11.29,3.35.41,5.27.41h17.35c1.98-1.94,2.29-2.12,2.66-2.12.43,0,.74.18,3.04,2.24,1.12.94,1.3,1.35,1.3,1.71,0,.65-.37.82-2.6,1.18-3.35,3.06-6.32,5.48-9.92,7.77.74.24.87.53.87.82,0,.47-.31.77-1.86,1.35v8.3h8.62c2.54-3.12,2.97-3.42,3.41-3.42s.87.29,3.47,2.53c1.24,1.06,1.55,1.41,1.55,1.77,0,.41-.19.59-.81.59h-16.24v5.06Z"/>
  </g>
</svg>