<?xml version="1.0" encoding="UTF-8"?>
<svg id="Layer_2" data-name="Layer 2" xmlns="http://www.w3.org/2000/svg" viewBox="0 0 60.1 110.22">
  <defs>
    <style>
      .cls-1 {
        fill: #231f20;
        stroke: #231f20;
        stroke-miterlimit: 10;
        stroke-width: 2px;
      }
    </style>
  </defs>
  <g id="Layer_1-2" data-name="Layer 1">
    <path class="cls-1" d="m19.31,28.89c1.8-4.06,2.11-4.54,2.48-4.54.43,0,.81.48,2.79,4.06.87,1.67,1.12,2.39,1.12,3.11,0,.96-.43,1.56-1.74,2.87-.99,16.14-2.73,29.29-5.52,40.29,3.59,4.9,5.58,10.04,5.58,14.7,0,2.51-.74,4.3-1.92,4.3-1.12,0-1.8-1.2-3.22-5.98-.68-2.15-1.43-4.3-2.35-6.46-3.41,10.88-8.06,19.49-14.26,26.78-.37.48-.99-.84-.68-1.43,5.64-9.56,9.61-19.13,12.46-30.72-1.86-3.59-3.84-6.7-6.01-9.44-.37,1.79-.74,3.71-1.18,5.62-.37,2.03-.99,2.51-2.11,2.51-1.55,0-2.29-.6-2.29-2.15,0-.84.12-1.79.68-4.18,2.23-10.04,4.15-22.95,5.7-36.34h-2.29c-1.74,0-2.98.24-4.71.84l-.62-4.66c1.98.72,3.35.84,5.21.84h2.73c.37-3.71.74-7.29,1.05-11,.62-6.94.93-11.36,1.12-16.5,5.14,1.79,6.2,2.63,6.2,3.7,0,1.2-.43,1.91-2.05,2.87-.68,7.77-1.36,14.7-2.05,20.92h5.89Zm-6.2,2.99c-1.3,11-2.66,22-4.71,32.64,2.79,2.15,4.83,4.06,6.82,6.22,2.23-10.76,3.59-23.31,4.4-38.85h-6.51Zm28.94,35.15c0,22.71.12,25.94.12,31.08,0,4.18-.56,6.1-1.36,7.65-.93,1.91-2.66,3.47-4.21,3.47-1.05,0-1.12-.6-1.3-2.51-.31-3.47-1.61-5.26-7-7.41-.37-.12-.37-1.79,0-1.79,3.97.6,6.2.84,8.12.84.74,0,1.12-.48,1.12-1.91v-39.69h-8.93c-1.43,0-2.48.24-4.09.72l-.68-4.54c1.86.6,3.1.84,4.71.84h8.99v-6.1c0-10.28,0-12.67-.31-17.1,1.8.48,3.16.84,4.09,1.2,2.97-5.86,4.71-10.4,7.19-18.17h-17.11c-1.8,0-3.04.12-4.77.84l-.68-4.66c2.11.6,3.35.84,5.27.84h17.35c1.98-3.94,2.29-4.3,2.66-4.3.43,0,.74.36,3.04,4.54,1.12,1.91,1.3,2.75,1.3,3.47,0,1.31-.37,1.67-2.6,2.39-3.35,6.22-6.32,11.12-9.92,15.78.74.48.87,1.08.87,1.67,0,.96-.31,1.55-1.86,2.75v16.86h8.62c2.54-6.34,2.97-6.94,3.41-6.94s.87.6,3.47,5.14c1.24,2.15,1.55,2.87,1.55,3.59,0,.84-.19,1.2-.81,1.2h-16.24v10.28Z"/>
  </g>
</svg>